<?xml version="1.0" encoding="UTF-8"?>
<svg width="31px" height="30px" viewBox="0 0 31 30" version="1.1" xmlns="http://www.w3.org/2000/svg" xmlns:xlink="http://www.w3.org/1999/xlink">
    <!-- Generator: Sketch 53.2 (72643) - https://sketchapp.com -->
    <title>Group 22</title>
    <desc>Created with Sketch.</desc>
    <g id="Page-1" stroke="none" stroke-width="1" fill="none" fill-rule="evenodd">
        <g id="Admin-Dashboard-01---Ecommerce-1200-detached" transform="translate(-63.000000, -29.000000)">
            <g id="Group-13">
                <g id="Group-22" transform="translate(63.041475, 29.000000)">
                    <g id="Group-26">
                        <path d="M4,30 L26,30 C28.209139,30 30,28.209139 30,26 L30,4 C30,1.790861 28.209139,-4.05812251e-16 26,0 L4,0 C1.790861,4.05812251e-16 -2.705415e-16,1.790861 0,4 L0,26 C2.705415e-16,28.209139 1.790861,30 4,30 Z" id="Fill-1" fill="#058BB5"></path>
                        <g id="Group-7" transform="translate(5.000000, 7.857143)" fill="#FEFEFE">
                            <g id="Group-6">
                                <path d="M8.043,11.8296703 L4.698,11.8296703 C3.96407143,11.8296703 3.31264286,11.5978022 2.73835714,11.1296703 C2.21978571,10.7076923 1.87371429,10.189011 1.70228571,9.57252747 C1.70014286,9.56483516 1.69907143,9.55934066 1.69907143,9.55274725 C1.69907143,9.45824176 1.77407143,9.38021978 1.86728571,9.37362637 L8.86907143,9.37362637 C8.95157143,9.36813187 9.018,9.30879121 9.03407143,9.23406593 C9.03621429,9.21978022 9.03728571,9.20659341 9.03942857,9.1956044 C9.0555,9.05384615 9.06407143,8.90989011 9.06407143,8.76043956 C9.06407143,7.56483516 8.64085714,6.54835165 7.79121429,5.71428571 C6.94371429,4.87802198 5.91085714,4.46043956 4.698,4.46043956 L1.31871429,4.46043956 C1.27157143,4.45824176 1.22657143,4.45494505 1.18264286,4.45054945 C0.841928571,4.43406593 0.541928571,4.36703297 0.330857143,4.26813187 L0.330857143,4.46043956 L0.330857143,5.16703297 C0.335142857,5.44835165 0.794785714,5.67582418 1.37228571,5.68791209 L4.698,5.68791209 C5.44478571,5.68791209 6.10157143,5.91758242 6.66942857,6.37802198 C7.17942857,6.79120879 7.52228571,7.31538462 7.69264286,7.94615385 C7.69478571,7.95274725 7.69478571,7.95934066 7.69478571,7.96373626 C7.69478571,8.06153846 7.61657143,8.14175824 7.51907143,8.14395604 L7.51907143,8.14505495 L0.532285714,8.14505495 C0.446571429,8.14835165 0.375857143,8.20769231 0.358714286,8.28791209 L0.358714286,8.29120879 C0.339428571,8.44175824 0.330857143,8.6 0.330857143,8.76043956 C0.330857143,9.93846154 0.757285714,10.9494505 1.6155,11.7934066 C2.4705,12.6373626 3.498,13.0582418 4.698,13.0582418 L8.06014286,13.0582418 C8.06657143,13.0582418 8.07514286,13.0604396 8.08264286,13.0604396 C8.47692857,13.067033 8.82728571,13.1373626 9.06407143,13.2494505 L9.06407143,13.0582418 L9.06407143,12.3505495 C9.05871429,12.0736264 8.60978571,11.8472527 8.043,11.8296703" id="Fill-2"></path>
                                <path d="M18.9833571,12.3243956 C18.9812143,12.32 18.9812143,12.3134066 18.9812143,12.3068132 L18.9812143,12.0210989 C18.9812143,10.4573626 18.3233571,9.25846154 17.0065714,8.42659341 C16.8608571,8.34747253 16.7601429,8.3221978 16.7601429,8.3221978 C16.8522857,8.32 16.9722857,8.26395604 17.0612143,8.21120879 C17.9847857,7.61120879 18.5740714,6.82769231 18.8312143,5.86065934 C18.8483571,5.79802198 18.8644286,5.73318681 18.8772857,5.66945055 C18.9769286,5.16285714 18.8687143,4.7243956 18.6083571,4.65626374 C18.5987143,4.65406593 18.5858571,4.65296703 18.5751429,4.65296703 L17.6569286,4.65296703 C17.6997857,4.82549451 17.7083571,5.04197802 17.6751429,5.27384615 C17.5605,5.86065934 17.2755,6.37934066 16.8222857,6.82549451 C16.2158571,7.4232967 15.4787143,7.7232967 14.6151429,7.7232967 C13.4997857,7.7232967 12.5322857,8.08923077 11.7126429,8.82 C11.4919286,9.02879121 11.4951429,9.17274725 11.4951429,9.17274725 L11.4951429,8.87054945 L11.4951429,1.37164835 C11.478,0.826593407 11.2594286,0.394725275 10.9840714,0.369450549 L10.0358571,0.369450549 C10.1472857,0.581538462 10.2244286,0.898021978 10.2415714,1.26065934 C10.2447857,1.29362637 10.2458571,1.3243956 10.248,1.35846154 L10.248,12.2551648 C10.2458571,12.2727473 10.2458571,12.2903297 10.2447857,12.3068132 C10.2415714,12.6793407 10.1762143,13.0134066 10.0744286,13.2496703 L10.9787143,13.2496703 C11.2594286,13.2287912 11.4844286,12.7815385 11.4951429,12.2221978 L11.4951429,12.0210989 C11.4951429,11.1694505 11.7983571,10.4452747 12.4058571,9.84857143 C13.0133571,9.24857143 13.7483571,8.95076923 14.6151429,8.95076923 C15.4969286,8.95076923 16.2372857,9.24527473 16.8351429,9.83428571 C17.4351429,10.4243956 17.7340714,11.152967 17.7340714,12.0210989 L17.7340714,12.2936264 C17.7608571,12.809011 17.9719286,13.2156044 18.2312143,13.2496703 L19.1376429,13.2496703 C19.0422857,13.0123077 18.9833571,12.6848352 18.9833571,12.3243956" id="Fill-4"></path>
                            </g>
                        </g>
                    </g>
                </g>
            </g>
        </g>
    </g>
</svg>